PathFileType	4	(X/Y/Z)	7_2_17_p0_0-308_filt_butterworth.trc
DataRate	CameraRate	NumFrames	NumMarkers	Units	OrigDataRate	OrigDataStartFrame	OrigNumFrames
59.0	59.0	5	27	m	59.0	269	308
Frame#	Time	RHip			RKnee			RAnkle			RBigToe			RSmallToe			RHeel			LHip			LKnee			LAnkle			LBigToe			LSmallToe			LHeel			Neck			Head			Nose			RShoulder			RElbow			RWrist			RThumb			RIndex			RPinky			LShoulder			LElbow			LWrist			LThumb			LIndex			LPinky			
		X1	Y1	Z1	X2	Y2	Z2	X3	Y3	Z3	X4	Y4	Z4	X5	Y5	Z5	X6	Y6	Z6	X7	Y7	Z7	X8	Y8	Z8	X9	Y9	Z9	X10	Y10	Z10	X11	Y11	Z11	X12	Y12	Z12	X13	Y13	Z13	X14	Y14	Z14	X15	Y15	Z15	X16	Y16	Z16	X17	Y17	Z17	X18	Y18	Z18	X19	Y19	Z19	X20	Y20	Z20	X21	Y21	Z21	X22	Y22	Z22	X23	Y23	Z23	X24	Y24	Z24	X25	Y25	Z25	X26	Y26	Z26	X27	Y27	Z27	
269	4.559322033898305	0.31570532561871983	0.9308806901273978	0.23675846285613855	0.31170878483874387	0.5662301744885019	0.23084785951217734	0.28710570880554676	0.15231202122273266	0.31006356392669215	0.2529893162907021	0.15575651399652896	0.0823535429925516	0.31408006044532055	0.14236583119632645	0.12606686545020232	0.26889231876124253	0.08547755871165433	0.3537022813444682	0.10163461765009357	0.9156598174436259	0.2921308880662136	0.098389994324492	0.5811494224666371	0.24356229651539069	0.13323503721229957	0.1300274005970825	0.32453417727915324	0.10412305592041259	0.13798528439933305	0.07823744280876384	0.051571445873901715	0.14235984490430298	0.15145926536707047	0.14076715581944882	0.07649704698765382	0.35224818704020766	0.20165442651707455	1.5454663934974	0.2105269270922695	0.21311711087859786	1.7943922977899447	0.18457906686579836	0.20271486074735717	1.6604235962100105	0.12159089064761874	0.3720244829655859	1.445951879360456	0.2147602311096368	0.4875265088671105	1.2362339898954187	0.087875203245944	0.4126714581869848	1.0571241991408753	-0.06862984879643723	0.3246776932341592	0.94803817129889	-0.06251013094862228	0.3364916369076202	0.9219297459192928	-0.06952826736214995	0.409688014204903	0.9354064333993998	-0.09542881967964967	0.03533136881699592	1.4615785374324268	0.24301140234739022	-0.059156642280557906	1.2201029030032795	0.23869877640664453	-0.061959437463285014	0.970472112310887	0.1500068202909911	-0.009351836344429522	0.8833594893495805	0.09805025185367532	-0.026993173132154102	0.8806724101083778	0.0675327088906117	-0.06433963953198227	0.8576353244014631	0.12142079488424595	
270	4.576271186440678	0.3154174441441666	0.9327833713133341	0.23499738078516402	0.3113419418029339	0.5678576949618558	0.2296010309835772	0.28676925102227174	0.1521277406241487	0.3098368351721661	0.2540637498895322	0.15599973881806387	0.08191037517005509	0.31596795856092974	0.14109014575512022	0.12832090249404343	0.2685903090572425	0.08477370483012299	0.3550594783130066	0.10159618904537053	0.9175015461704106	0.2923911905457145	0.09798336645726452	0.5826082868298702	0.2434434596500388	0.13324088421319322	0.12955437217869778	0.32452337621823807	0.10465225945057374	0.14126522710601444	0.07372767612418352	0.05160228764053797	0.1421733392233698	0.15152970672705646	0.14049465290819846	0.07543025990469503	0.35333427024708075	0.20342704494844271	1.5459409647515552	0.21090386841225955	0.21643589462166576	1.794832802628359	0.19057868983016873	0.20378683938294717	1.6598044340585656	0.12393184799402518	0.37264399054705	1.4450879519855204	0.2162586783237907	0.4793043366537494	1.2346736123871875	0.08149696550812591	0.40886003556556727	1.0529440949846014	-0.06981850481392887	0.32212361655938543	0.9392416680340858	-0.06392166401563927	0.3347158616835508	0.9139516501112007	-0.06974477242217678	0.4019941215345645	0.930585803278392	-0.10335166857293102	0.03621555437497609	1.4628447346821793	0.24443787465067796	-0.05802447505205118	1.223062397286284	0.22903744850688573	-0.05909091665970573	0.9786516410873639	0.12343981744213606	-0.000995039936461783	0.891555285288899	0.07349532676175498	-0.01896087469340175	0.8930331030976544	0.030519685053310625	-0.06178680145521762	0.8653316937526749	0.09620912392027751	
271	4.593220338983051	0.31489203805312677	0.9349760323856602	0.23228945570202808	0.3111377120497303	0.5692422308280758	0.22862392833860146	0.286338837471408	0.1515761964970879	0.31016889514265716	0.2551530614992321	0.1558673026061563	0.08177154532637551	0.31829319970456527	0.13859521560015184	0.13204301598449036	0.2682442740005269	0.08398801059054803	0.3562819058355314	0.10123225184020046	0.9194046783715041	0.2917187319482162	0.09771557085460819	0.5837462299140441	0.24341712546531008	0.13325586768129746	0.12916262883707333	0.32453894305918474	0.10524500792769131	0.1435904241450735	0.07057593343771076	0.051624404915399026	0.1420115972246402	0.1516242164978695	0.14033899155046708	0.07444277378798907	0.35436731789433934	0.20492552650275103	1.546046621548624	0.21306002379011227	0.21964315896441677	1.7951146247733019	0.196055097857537	0.20456152050008397	1.6592176012682012	0.1259913906140341	0.37298637345271235	1.444686610137457	0.217114350417831	0.47084059285874674	1.2319611591900321	0.07913327801235495	0.4019913007711674	1.0492062101154354	-0.07007860540476987	0.31603330548686465	0.9318939071653339	-0.06583655804334801	0.330570882865564	0.9093858150080026	-0.07114867200281351	0.39111709150468754	0.9262625270713666	-0.1073865592485959	0.03734772609889245	1.4638746999341927	0.2444076182761896	-0.05720458917476148	1.2245784276993383	0.22084770504012347	-0.05397179038160118	0.987594918669325	0.09514068388513923	0.00908569504836974	0.8999405934049443	0.04991945415514769	-0.009802930711728532	0.9053139622493386	-0.0021106660190332166	-0.05623566222145322	0.8749796477577906	0.06964210834367296	
272	4.610169491525424	0.3140272398339619	0.9370726181592576	0.22901599958638943	0.3111326974241943	0.5702073402752158	0.2279482637128973	0.28581469932876596	0.15064601184652854	0.3110816113870031	0.2561520240974671	0.15529812302775106	0.08199333802818047	0.32059104939102845	0.1353949600272942	0.13657883875206092	0.26789216408003236	0.08321353658019962	0.35732378862239633	0.10065401429300046	0.9213745579850531	0.29011477531068464	0.09756142918402907	0.5845501378030279	0.24342749855290852	0.1332627362624369	0.12889105637253423	0.32458690008582225	0.1059033854040957	0.1443782381862926	0.06958636131426008	0.051613896339632585	0.14177871767107253	0.15173692706076905	0.14024107383219417	0.07364896420433233	0.3552783153820842	0.2059470079894935	1.5457754437325644	0.21735258443202554	0.22266268301487024	1.7953811263719608	0.20077034193508567	0.2050452724988085	1.6588316863718087	0.1275236884560524	0.3730754066293313	1.4445591090592471	0.2173353569925574	0.4622660067187504	1.228342980887293	0.08112244025443888	0.39170381032403623	1.0461285480180065	-0.0692500999356834	0.3059610257318731	0.9272679071984273	-0.06805518703095925	0.32322708765943786	0.9080026831445668	-0.0742954551858998	0.37853601979532947	0.9221804972351394	-0.10666961446066481	0.03853535622062161	1.4645689297407594	0.2430223501632688	-0.056404746471364606	1.22478226979592	0.21399140910514985	-0.046632100733502824	0.9970477244730089	0.06611389585787922	0.02147722451361872	0.9091976699004489	0.026184695605582287	0.0008530078778154549	0.9168950999984541	-0.029137437549887638	-0.04765815755062694	0.8863653705920438	0.042149688775642194	
273	4.627118644067797	0.3128292092177453	0.9390140242237809	0.22537964450566994	0.3113455880969044	0.5707122771624593	0.22761515671639396	0.28529293617585677	0.14953831363477804	0.31232966058195066	0.25707719346320956	0.1543404598580963	0.08272083137301037	0.3226365455361001	0.13193484593078017	0.1412309848293305	0.267546997598754	0.08265053082899451	0.3581367980348876	0.09996951456703249	0.9234875039094433	0.2875809889945245	0.09746616770197347	0.585063827539817	0.24337311428069724	0.133255010523267	0.12878788387028436	0.32466127801998307	0.10657728247026058	0.1437732284824894	0.07076630322311118	0.05155952024720553	0.14152783660735313	0.15182516040928046	0.14015849944293116	0.07311209655207279	0.3559636547524387	0.20648407148586728	1.545349007392455	0.22329701793898155	0.22532505890753524	1.7956992027825127	0.20466020126104092	0.20529941967942372	1.6587491438687667	0.1283849538379779	0.3730363635384048	1.4444133661754952	0.21717297497698512	0.4535074492431141	1.224506792505776	0.08637150718115108	0.3785850840163752	1.0437825948181305	-0.0676644915055639	0.2927371477092124	0.9259646129244243	-0.07031174459603208	0.3126873057931995	0.9088375527751859	-0.07863853877579274	0.36599941508192424	0.9187282951634913	-0.1022589128907326	0.039607708448110374	1.4649866837426422	0.24069674363449606	-0.055347146441324435	1.2242866983335936	0.20846534887313797	-0.03730207128637495	1.0070579050415447	0.03731202516071261	0.03660161428230699	0.9204979869045635	0.001405608917826054	0.013521240395078793	0.9279013387290636	-0.051931302205971995	-0.03643443670742298	0.8992697846170687	0.0138296754156218	
